<svg width="362" height="362" viewBox="0 0 362 362" fill="none" xmlns="http://www.w3.org/2000/svg">
<rect width="362" height="362" fill="white"/>
<rect width="362" height="362" fill="url(#paint0_linear)"/>
<g clip-path="url(#clip0)">
<path d="M163.596 304.518C161.556 304.271 158.957 303.879 157.821 303.647C154.982 303.066 147.866 303.104 137.794 303.753C133.44 304.034 127.651 304.259 124.929 304.253C122.207 304.247 119.875 304.308 119.746 304.387C119.287 304.671 118.229 304.042 118.064 303.388C117.816 302.396 118.303 301.587 119.266 301.393C122.485 300.742 125.44 298.037 126.39 294.869C126.604 294.157 126.932 291.18 127.138 288.075C127.466 283.137 127.954 277.906 129.128 266.725C130.162 256.872 130.662 239.865 130.592 216.865C130.437 165.325 129.977 94.0737 129.774 90.1425C129.097 77.0131 128.971 75.3691 128.51 73.5655C127.908 71.2111 126.459 68.2225 125.251 66.8432C124.737 66.2572 124.159 65.4742 123.965 65.1033C123.772 64.7324 123.218 64.1634 122.735 63.8389C121.569 63.0562 121.163 61.6468 121.875 60.8555C122.324 60.3569 122.515 60.3315 124.618 60.4894C125.861 60.5827 127.682 60.798 128.666 60.9677C129.682 61.1432 130.765 61.1917 131.177 61.0801C131.574 60.9721 133.99 61.0066 136.545 61.1569C139.767 61.3463 143.614 61.3553 149.1 61.186C160.482 60.8349 163.339 60.8221 163.895 61.1201C164.232 61.3002 164.596 61.3015 165.063 61.1242C166.063 60.7436 166.928 61.3756 166.928 62.4874C166.928 63.4549 166.727 63.6534 165.171 64.2157C164.549 64.4404 163.407 64.8576 162.633 65.1428L161.224 65.6615L160.075 68.1059C157.893 72.7486 156.98 77.2949 157.371 81.5772C157.51 83.1048 157.472 84.1654 157.244 85.1459C156.097 90.0843 156.248 102.697 157.615 116.085C157.732 117.229 157.734 119.998 157.62 122.239C157.507 124.48 157.436 131.371 157.463 137.554C157.49 143.736 157.456 148.794 157.387 148.794C157.258 148.793 157.29 150.887 157.593 162.232L157.768 168.763L158.313 167.578C159.087 165.896 160.184 164.371 161.579 163.04C164.197 160.541 166.458 159.125 174.644 154.857C182.697 150.66 189.081 147.099 189.552 146.543C189.773 146.282 190.481 145.822 191.125 145.519C192.611 144.82 194.386 142.856 194.903 141.338C195.387 139.917 195.405 137.461 194.94 136.159C194.442 134.76 193.308 133.234 192.164 132.421C191.612 132.028 190.934 131.498 190.658 131.244C190.382 130.989 189.919 130.706 189.631 130.615C189.008 130.418 188.438 129.454 188.562 128.809C188.78 127.675 192.246 126.61 195.68 126.62C197.442 126.626 198.369 126.773 199.891 127.287C200.964 127.649 201.903 127.946 201.978 127.946C202.052 127.946 202.046 125.092 201.964 121.603C200.803 72.1137 200.695 68.7402 200.19 66.4227C199.966 65.396 199.398 63.7901 198.926 62.8541C198.139 61.289 197.984 61.13 197 60.8737C196.412 60.7204 195.652 60.5162 195.311 60.42C194.97 60.3238 194.525 59.9487 194.321 59.5865C193.991 58.9979 193.997 58.8595 194.376 58.281C195.254 56.9405 199.645 56.5744 203.087 57.5548C204.123 57.8498 206.891 58.5773 209.239 59.1714L213.508 60.2517H221.794C229.653 60.2517 230.281 60.2169 233.973 59.5769C239.724 58.5798 240.84 58.4914 241.342 58.9935C242.02 59.6721 241.845 60.6565 240.86 61.696C240.042 62.5592 239.853 62.6379 238.604 62.6379C237.289 62.6379 237.212 62.6762 236.462 63.7054C235.33 65.2566 234.323 67.3456 233.817 69.1888C233.408 70.6777 233.372 72.7769 233.35 96.5477C233.328 120.493 233.01 140.046 232.216 166.198C232.079 170.727 231.893 183.217 231.804 193.953C231.605 218.033 231.919 226.984 233.466 241.23C233.915 245.365 233.993 248.448 234.174 269.237L234.378 292.597L234.948 294.044C235.922 296.52 238.392 298.603 241.428 299.511C242.006 299.684 242.834 300.191 243.266 300.638C244.274 301.678 244.241 302.836 243.182 303.624C242.489 304.14 242.246 304.151 232.008 304.151C226.252 304.151 216.458 304.069 210.244 303.968C200.459 303.81 198.63 303.719 196.603 303.293C195.316 303.023 194.101 302.668 193.904 302.504C193.3 302.002 193.453 300.581 194.162 300.116C194.501 299.894 194.902 299.788 195.052 299.881C195.202 299.974 195.494 299.91 195.701 299.738C195.926 299.551 196.703 299.443 197.636 299.468C198.493 299.491 199.323 299.424 199.48 299.319C199.747 299.139 200.43 296.968 201.123 294.1C201.352 293.152 201.464 278.305 201.588 232.941C201.703 190.454 201.834 172.29 202.039 170.478C202.464 166.712 202.529 165.339 202.732 155.885L202.916 147.278L201.307 148.353C200.422 148.945 196.872 150.657 193.42 152.158C184.59 155.996 171.051 162.918 167.03 165.649C165.818 166.472 164.387 168.992 163.775 171.38C163.127 173.913 163.702 175.47 165.779 176.799C167.258 177.746 167.461 178.048 167.161 178.857C166.837 179.728 166.005 180 163.552 180.034C161.474 180.063 161.12 179.996 159.729 179.307L158.196 178.547L158.309 192.871C158.372 200.749 158.52 211.829 158.639 217.493C158.758 223.157 158.779 232.313 158.686 237.839C158.593 243.365 158.521 254.951 158.527 263.585C158.536 277.96 158.584 279.761 159.1 284.936C160.181 295.782 160.504 297.073 163.111 300.956C163.236 301.143 164.316 301.389 165.68 301.541C168.593 301.866 169.44 302.255 169.44 303.269C169.44 304.13 168.584 305.045 167.823 304.998C167.538 304.981 165.636 304.764 163.596 304.518L163.596 304.518Z" fill="black"/>
</g>
<defs>
<linearGradient id="paint0_linear" x1="181" y1="0" x2="181" y2="362" gradientUnits="userSpaceOnUse">
<stop stop-color="#FFC20E"/>
<stop offset="1" stop-color="#FFC20E"/>
</linearGradient>
<clipPath id="clip0">
<rect width="126" height="248" fill="white" transform="translate(118 57)"/>
</clipPath>
</defs>
</svg>
