<svg width="778" height="778" viewBox="0 0 778 778" fill="none" xmlns="http://www.w3.org/2000/svg">
<rect width="778" height="778" fill="white"/>
<rect width="778" height="778" fill="url(#paint0_linear)"/>
<g clip-path="url(#clip0)">
<path d="M371.596 428.518C369.556 428.271 366.957 427.879 365.821 427.647C362.982 427.066 355.866 427.104 345.794 427.753C341.44 428.034 335.651 428.259 332.929 428.253C330.207 428.247 327.875 428.308 327.746 428.387C327.287 428.671 326.229 428.042 326.064 427.388C325.816 426.396 326.303 425.587 327.266 425.393C330.485 424.742 333.44 422.037 334.39 418.869C334.604 418.157 334.932 415.18 335.138 412.075C335.466 407.137 335.954 401.906 337.128 390.725C338.162 380.872 338.662 363.865 338.592 340.865C338.437 289.325 337.977 218.074 337.774 214.143C337.097 201.013 336.971 199.369 336.51 197.565C335.908 195.211 334.459 192.222 333.251 190.843C332.737 190.257 332.159 189.474 331.965 189.103C331.772 188.732 331.218 188.163 330.735 187.839C329.569 187.056 329.163 185.647 329.875 184.856C330.324 184.357 330.515 184.332 332.618 184.489C333.861 184.583 335.682 184.798 336.666 184.968C337.682 185.143 338.765 185.192 339.177 185.08C339.574 184.972 341.99 185.007 344.545 185.157C347.767 185.346 351.614 185.355 357.1 185.186C368.482 184.835 371.339 184.822 371.895 185.12C372.232 185.3 372.596 185.301 373.063 185.124C374.063 184.744 374.928 185.376 374.928 186.487C374.928 187.455 374.727 187.653 373.171 188.216C372.549 188.44 371.407 188.858 370.633 189.143L369.224 189.662L368.075 192.106C365.893 196.749 364.98 201.295 365.371 205.577C365.51 207.105 365.472 208.165 365.244 209.146C364.097 214.084 364.248 226.697 365.615 240.085C365.732 241.229 365.734 243.998 365.62 246.239C365.507 248.48 365.436 255.371 365.463 261.554C365.49 267.736 365.456 272.794 365.387 272.794C365.258 272.793 365.29 274.887 365.593 286.232L365.768 292.763L366.313 291.578C367.087 289.896 368.184 288.371 369.579 287.04C372.197 284.541 374.458 283.125 382.644 278.857C390.697 274.66 397.081 271.099 397.552 270.543C397.773 270.282 398.481 269.822 399.125 269.519C400.611 268.82 402.386 266.856 402.903 265.338C403.387 263.917 403.405 261.461 402.94 260.159C402.442 258.76 401.308 257.234 400.164 256.421C399.612 256.028 398.934 255.498 398.658 255.244C398.382 254.989 397.919 254.706 397.631 254.615C397.008 254.418 396.438 253.454 396.562 252.809C396.78 251.675 400.246 250.61 403.68 250.62C405.442 250.626 406.369 250.773 407.891 251.287C408.964 251.649 409.903 251.946 409.978 251.946C410.052 251.946 410.046 249.092 409.964 245.603C408.803 196.114 408.695 192.74 408.19 190.423C407.966 189.396 407.398 187.79 406.926 186.854C406.139 185.289 405.984 185.13 405 184.874C404.412 184.72 403.652 184.516 403.311 184.42C402.97 184.324 402.525 183.949 402.321 183.587C401.991 182.998 401.997 182.859 402.376 182.281C403.254 180.94 407.645 180.574 411.087 181.555C412.123 181.85 414.891 182.577 417.239 183.171L421.508 184.252H429.794C437.653 184.252 438.281 184.217 441.973 183.577C447.724 182.58 448.84 182.491 449.342 182.993C450.02 183.672 449.845 184.657 448.86 185.696C448.042 186.559 447.853 186.638 446.604 186.638C445.289 186.638 445.212 186.676 444.462 187.705C443.33 189.257 442.323 191.346 441.817 193.189C441.408 194.678 441.372 196.777 441.35 220.548C441.328 244.493 441.01 264.046 440.216 290.198C440.079 294.727 439.893 307.217 439.804 317.953C439.605 342.033 439.919 350.984 441.466 365.23C441.915 369.365 441.993 372.448 442.174 393.237L442.378 416.597L442.948 418.044C443.922 420.52 446.392 422.603 449.428 423.511C450.006 423.684 450.834 424.191 451.266 424.638C452.274 425.678 452.241 426.836 451.182 427.624C450.489 428.14 450.246 428.151 440.008 428.151C434.252 428.151 424.458 428.069 418.244 427.968C408.459 427.81 406.63 427.719 404.603 427.293C403.316 427.023 402.101 426.668 401.904 426.504C401.3 426.002 401.453 424.581 402.162 424.116C402.501 423.894 402.902 423.788 403.052 423.881C403.202 423.974 403.494 423.91 403.701 423.738C403.926 423.551 404.703 423.443 405.636 423.468C406.493 423.491 407.323 423.424 407.48 423.319C407.747 423.139 408.43 420.968 409.123 418.1C409.352 417.152 409.464 402.305 409.588 356.941C409.703 314.454 409.834 296.29 410.039 294.478C410.464 290.712 410.529 289.339 410.732 279.885L410.916 271.278L409.307 272.353C408.422 272.945 404.872 274.657 401.42 276.158C392.59 279.996 379.051 286.918 375.03 289.649C373.818 290.472 372.387 292.992 371.775 295.38C371.127 297.913 371.702 299.47 373.779 300.799C375.258 301.746 375.461 302.048 375.161 302.857C374.837 303.728 374.005 304 371.552 304.034C369.474 304.063 369.12 303.996 367.729 303.307L366.196 302.547L366.309 316.871C366.372 324.749 366.52 335.829 366.639 341.493C366.758 347.157 366.779 356.313 366.686 361.839C366.593 367.365 366.521 378.951 366.527 387.585C366.536 401.96 366.584 403.761 367.1 408.936C368.181 419.782 368.504 421.073 371.111 424.956C371.236 425.143 372.316 425.389 373.68 425.541C376.593 425.866 377.44 426.255 377.44 427.269C377.44 428.13 376.584 429.045 375.823 428.998C375.538 428.981 373.636 428.764 371.596 428.518L371.596 428.518Z" fill="black"/>
</g>
<path d="M143.25 558.25V511.375L149.188 508.562H149.5V531.688H167.938V511.375L173.875 508.562H174.188V555.438L168.25 558.25H167.938V535.125H149.5V555.438L143.562 558.25H143.25ZM193.088 558.25V524.812C193.088 520.312 194.494 516.615 197.306 513.719C200.265 510.698 204.119 509.188 208.869 509.188C213.535 509.188 217.39 510.698 220.431 513.719C223.244 516.51 224.65 520.208 224.65 524.812V555.438L218.713 558.25H218.4V535.125H199.338V555.438L193.4 558.25H193.088ZM199.338 531.688H218.4V522.625C218.4 519.833 217.65 517.573 216.15 515.844C214.275 513.698 211.848 512.625 208.869 512.625C205.869 512.625 203.442 513.698 201.588 515.844C200.088 517.594 199.338 519.854 199.338 522.625V531.688ZM243.55 557V511.375L249.488 508.562H249.8V553.562H271.206V553.875L269.738 557H243.55ZM280.262 558.25V511.375L283.575 509.812H303.387V510.125L301.919 513.25H286.512V531.688H303.387V532L301.919 535.125H286.512V555.438L280.575 558.25H280.262ZM359.312 544.188C359.312 546.979 360.062 549.24 361.562 550.969C363.417 553.115 365.844 554.188 368.844 554.188C371.844 554.188 374.271 553.115 376.125 550.969C377.625 549.24 378.375 546.979 378.375 544.188V522.625C378.375 519.833 377.625 517.573 376.125 515.844C374.271 513.698 371.844 512.625 368.844 512.625C365.844 512.625 363.417 513.698 361.562 515.844C360.062 517.573 359.312 519.833 359.312 522.625V544.188ZM353.062 542V524.812C353.062 520.292 354.469 516.594 357.281 513.719C360.24 510.698 364.094 509.188 368.844 509.188C373.594 509.188 377.448 510.698 380.406 513.719C383.219 516.573 384.625 520.271 384.625 524.812V542C384.625 546.521 383.219 550.219 380.406 553.094C377.448 556.115 373.594 557.625 368.844 557.625C364.094 557.625 360.24 556.115 357.281 553.094C354.469 550.219 353.062 546.521 353.062 542ZM403.525 558.25V511.375L406.837 509.812H426.65V510.125L425.181 513.25H409.775V531.688H426.65V532L425.181 535.125H409.775V555.438L403.837 558.25H403.525ZM475.075 542.625L481.013 539.812H481.325V544.562C481.325 547.104 482.075 549.24 483.575 550.969C485.429 553.115 487.856 554.188 490.856 554.188C493.835 554.188 496.263 553.115 498.138 550.969C499.617 549.281 500.356 546.396 500.356 542.312C500.356 539.104 499.752 536.792 498.544 535.375C496.877 533.417 494.315 532.438 490.856 532.438C486.815 532.438 483.533 531.312 481.013 529.062C478.929 527.188 477.888 524.542 477.888 521.125C477.888 517.271 479.179 514.292 481.763 512.188C484.221 510.188 487.252 509.188 490.856 509.188C494.46 509.188 497.492 510.188 499.95 512.188C502.533 514.292 503.825 517.177 503.825 520.844L497.888 523.656H497.575V519.656C497.575 517.281 496.898 515.51 495.544 514.344C494.231 513.198 492.669 512.625 490.856 512.625C488.835 512.625 487.21 513.26 485.981 514.531C484.752 515.802 484.138 518.01 484.138 521.156C484.138 523.948 484.606 525.865 485.544 526.906C486.794 528.302 488.565 529 490.856 529C496.106 529 500.013 530.177 502.575 532.531C505.263 535.01 506.606 538.25 506.606 542.25C506.606 546.5 505.21 550.115 502.419 553.094C499.565 556.115 495.71 557.625 490.856 557.625C486.002 557.625 482.148 556.115 479.294 553.094C476.481 550.115 475.075 546.625 475.075 542.625ZM524.288 558.25V524.812C524.288 520.312 525.694 516.615 528.506 513.719C531.465 510.698 535.319 509.188 540.069 509.188C544.735 509.188 548.59 510.698 551.631 513.719C554.444 516.51 555.85 520.208 555.85 524.812V555.438L549.913 558.25H549.6V535.125H530.538V555.438L524.6 558.25H524.288ZM530.538 531.688H549.6V522.625C549.6 519.833 548.85 517.573 547.35 515.844C545.475 513.698 543.048 512.625 540.069 512.625C537.069 512.625 534.642 513.698 532.788 515.844C531.288 517.594 530.538 519.854 530.538 522.625V531.688ZM574.75 557V511.375L580.688 508.562H581V553.562H602.406V553.875L600.938 557H574.75ZM611.462 557V511.375L614.775 509.812H634.587V510.125L633.119 513.25H617.712V531.688H634.587V532L633.119 535.125H617.712V553.562H639.806V553.875L638.337 557H611.462Z" fill="black"/>
<defs>
<linearGradient id="paint0_linear" x1="389" y1="0" x2="389" y2="778" gradientUnits="userSpaceOnUse">
<stop stop-color="#FFC20E"/>
<stop offset="1" stop-color="#FFC20E"/>
</linearGradient>
<clipPath id="clip0">
<rect width="126" height="248" fill="white" transform="translate(326 181)"/>
</clipPath>
</defs>
</svg>
