<svg width="600" height="214" viewBox="0 0 600 214" fill="none" xmlns="http://www.w3.org/2000/svg">
<g clip-path="url(#clip0)">
<path d="M17.6 180.616V195.4C17.6 196.978 17.28 198.408 16.64 199.688C16 200.946 15.0187 201.949 13.696 202.696C12.3947 203.421 10.7307 203.784 8.70399 203.784C5.86665 203.784 3.70132 203.016 2.208 201.48C0.736 199.922 0 197.874 0 195.336V180.616H2.88V195.432C2.88 197.288 3.37066 198.728 4.35197 199.752C5.35466 200.776 6.85866 201.288 8.86397 201.288C10.9333 201.288 12.4267 200.744 13.344 199.656C14.2827 198.546 14.752 197.128 14.752 195.4V180.616H17.6Z" fill="black"/>
<path d="M88.5156 174.909H92.7539L91.543 184.303H89.707L88.5156 174.909Z" fill="black"/>
<path d="M115.119 195.824C115.119 198.357 114.199 200.33 112.359 201.744C110.519 203.157 108.039 203.864 104.919 203.864C103.319 203.864 101.839 203.744 100.479 203.504C99.1191 203.264 97.9858 202.93 97.0791 202.504V199.064C98.0391 199.49 99.2258 199.877 100.639 200.224C102.079 200.57 103.559 200.744 105.079 200.744C107.212 200.744 108.812 200.33 109.879 199.504C110.972 198.677 111.519 197.557 111.519 196.144C111.519 195.21 111.319 194.424 110.919 193.784C110.519 193.144 109.826 192.557 108.839 192.024C107.879 191.464 106.532 190.877 104.799 190.264C102.372 189.384 100.532 188.304 99.2791 187.024C98.0524 185.744 97.4391 183.997 97.4391 181.784C97.4391 180.264 97.8258 178.97 98.5991 177.904C99.3724 176.81 100.439 175.97 101.799 175.384C103.186 174.797 104.772 174.504 106.559 174.504C108.132 174.504 109.572 174.65 110.879 174.944C112.186 175.237 113.372 175.624 114.439 176.104L113.319 179.184C112.332 178.757 111.252 178.397 110.079 178.104C108.932 177.81 107.732 177.664 106.479 177.664C104.692 177.664 103.346 178.05 102.439 178.824C101.532 179.57 101.079 180.57 101.079 181.824C101.079 182.784 101.279 183.584 101.679 184.224C102.079 184.864 102.732 185.437 103.639 185.944C104.546 186.45 105.772 186.997 107.319 187.584C108.999 188.197 110.412 188.864 111.559 189.584C112.732 190.277 113.612 191.117 114.199 192.104C114.812 193.09 115.119 194.33 115.119 195.824V195.824Z" fill="black"/>
<path d="M118.796 189.108C118.796 184.499 119.564 180.912 121.101 178.346C122.65 175.781 125.026 174.499 128.229 174.499C131.211 174.499 133.509 175.775 135.124 178.327C136.752 180.866 137.565 184.473 137.565 189.147C137.565 193.835 136.745 197.461 135.104 200.026C133.464 202.578 131.159 203.854 128.19 203.854C125.013 203.854 122.65 202.552 121.101 199.948C119.564 197.344 118.796 193.731 118.796 189.108V189.108ZM133.405 189.147C133.405 185.007 133.008 181.895 132.214 179.811C131.42 177.715 130.091 176.667 128.229 176.667C126.341 176.667 124.987 177.715 124.167 179.811C123.36 181.895 122.956 185.007 122.956 189.147C122.956 193.288 123.36 196.419 124.167 198.542C124.987 200.651 126.328 201.706 128.19 201.706C130.065 201.706 131.4 200.651 132.194 198.542C133.002 196.432 133.405 193.301 133.405 189.147Z" fill="black"/>
<path d="M141.159 189.108C141.159 184.499 141.927 180.912 143.464 178.346C145.013 175.781 147.39 174.499 150.593 174.499C153.575 174.499 155.873 175.775 157.487 178.327C159.115 180.866 159.929 184.473 159.929 189.147C159.929 193.835 159.108 197.461 157.468 200.026C155.827 202.578 153.522 203.854 150.554 203.854C147.377 203.854 145.013 202.552 143.464 199.948C141.927 197.344 141.159 193.731 141.159 189.108V189.108ZM155.769 189.147C155.769 185.007 155.371 181.895 154.577 179.811C153.783 177.715 152.455 176.667 150.593 176.667C148.705 176.667 147.351 177.715 146.53 179.811C145.723 181.895 145.319 185.007 145.319 189.147C145.319 193.288 145.723 196.419 146.53 198.542C147.351 200.651 148.692 201.706 150.554 201.706C152.429 201.706 153.763 200.651 154.558 198.542C155.365 196.432 155.769 193.301 155.769 189.147V189.147Z" fill="black"/>
<path d="M163.522 189.108C163.522 184.499 164.291 180.912 165.827 178.346C167.377 175.781 169.753 174.499 172.956 174.499C175.938 174.499 178.236 175.775 179.851 178.327C181.478 180.866 182.292 184.473 182.292 189.147C182.292 193.835 181.472 197.461 179.831 200.026C178.19 202.578 175.886 203.854 172.917 203.854C169.74 203.854 167.377 202.552 165.827 199.948C164.291 197.344 163.522 193.731 163.522 189.108V189.108ZM178.132 189.147C178.132 185.007 177.735 181.895 176.94 179.811C176.146 177.715 174.818 176.667 172.956 176.667C171.068 176.667 169.714 177.715 168.894 179.811C168.086 181.895 167.683 185.007 167.683 189.147C167.683 193.288 168.086 196.419 168.894 198.542C169.714 200.651 171.055 201.706 172.917 201.706C174.792 201.706 176.127 200.651 176.921 198.542C177.728 196.432 178.132 193.301 178.132 189.147V189.147Z" fill="black"/>
<path d="M185.886 189.108C185.886 184.499 186.654 180.912 188.19 178.346C189.74 175.781 192.116 174.499 195.319 174.499C198.301 174.499 200.599 175.775 202.214 178.327C203.841 180.866 204.655 184.473 204.655 189.147C204.655 193.835 203.835 197.461 202.194 200.026C200.554 202.578 198.249 203.854 195.28 203.854C192.103 203.854 189.74 202.552 188.19 199.948C186.654 197.344 185.886 193.731 185.886 189.108V189.108ZM200.495 189.147C200.495 185.007 200.098 181.895 199.304 179.811C198.509 177.715 197.181 176.667 195.319 176.667C193.431 176.667 192.077 177.715 191.257 179.811C190.45 181.895 190.046 185.007 190.046 189.147C190.046 193.288 190.45 196.419 191.257 198.542C192.077 200.651 193.418 201.706 195.28 201.706C197.155 201.706 198.49 200.651 199.284 198.542C200.091 196.432 200.495 193.301 200.495 189.147Z" fill="black"/>
<path d="M222.932 203.464L213.532 178.424H213.372C213.452 179.25 213.519 180.37 213.572 181.784C213.625 183.17 213.652 184.624 213.652 186.144V203.464H210.332V174.904H215.652L224.452 198.304H224.612L233.572 174.904H238.852V203.464H235.292V185.904C235.292 184.517 235.319 183.144 235.372 181.784C235.452 180.424 235.519 179.317 235.572 178.464H235.412L225.892 203.464H222.932Z" fill="black"/>
<path d="M254.052 188.944L261.492 174.904H265.372L255.852 192.384V203.464H252.252V192.544L242.732 174.904H246.652L254.052 188.944Z" fill="black"/>
<path d="M267.168 189.108C267.168 184.499 267.937 180.912 269.473 178.346C271.023 175.781 273.399 174.499 276.602 174.499C279.584 174.499 281.882 175.775 283.497 178.327C285.124 180.866 285.938 184.473 285.938 189.147C285.938 193.835 285.118 197.461 283.477 200.026C281.836 202.578 279.532 203.854 276.563 203.854C273.386 203.854 271.023 202.552 269.473 199.948C267.937 197.344 267.168 193.731 267.168 189.108V189.108ZM281.778 189.147C281.778 185.007 281.381 181.895 280.586 179.811C279.792 177.715 278.464 176.667 276.602 176.667C274.714 176.667 273.36 177.715 272.54 179.811C271.732 181.895 271.329 185.007 271.329 189.147C271.329 193.288 271.732 196.419 272.54 198.542C273.36 200.651 274.701 201.706 276.563 201.706C278.438 201.706 279.773 200.651 280.567 198.542C281.374 196.432 281.778 193.301 281.778 189.147Z" fill="black"/>
<path d="M316.563 189.108C316.563 184.499 317.331 180.912 318.868 178.346C320.417 175.781 322.793 174.499 325.997 174.499C328.978 174.499 331.277 175.775 332.891 178.327C334.519 180.866 335.332 184.473 335.332 189.147C335.332 193.835 334.512 197.461 332.872 200.026C331.231 202.578 328.926 203.854 325.957 203.854C322.78 203.854 320.417 202.552 318.868 199.948C317.331 197.344 316.563 193.731 316.563 189.108V189.108ZM331.172 189.147C331.172 185.007 330.775 181.895 329.981 179.811C329.187 177.715 327.859 176.667 325.997 176.667C324.109 176.667 322.754 177.715 321.934 179.811C321.127 181.895 320.723 185.007 320.723 189.147C320.723 193.288 321.127 196.419 321.934 198.542C322.754 200.651 324.096 201.706 325.957 201.706C327.832 201.706 329.167 200.651 329.961 198.542C330.769 196.432 331.172 193.301 331.172 189.147Z" fill="black"/>
<path d="M348.569 174.904C352.303 174.904 355.023 175.637 356.729 177.104C358.436 178.57 359.289 180.637 359.289 183.304C359.289 184.877 358.929 186.357 358.209 187.744C357.516 189.104 356.329 190.21 354.649 191.064C352.996 191.917 350.743 192.344 347.889 192.344H344.609V203.464H341.009V174.904H348.569ZM348.249 177.984H344.609V189.264H347.489C350.209 189.264 352.236 188.824 353.569 187.944C354.903 187.064 355.569 185.57 355.569 183.464C355.569 181.624 354.983 180.25 353.809 179.344C352.636 178.437 350.783 177.984 348.249 177.984V177.984Z" fill="black"/>
<path d="M373.089 174.904C376.636 174.904 379.249 175.584 380.929 176.944C382.636 178.277 383.489 180.304 383.489 183.024C383.489 184.544 383.209 185.81 382.649 186.824C382.089 187.837 381.369 188.65 380.489 189.264C379.636 189.85 378.729 190.317 377.769 190.664L385.609 203.464H381.409L374.489 191.664H368.809V203.464H365.209V174.904H373.089ZM372.889 178.024H368.809V188.624H373.089C375.409 188.624 377.102 188.17 378.169 187.264C379.236 186.33 379.769 184.97 379.769 183.184C379.769 181.317 379.209 179.997 378.089 179.224C376.969 178.424 375.236 178.024 372.889 178.024Z" fill="black"/>
<path d="M388.006 189.108C388.006 184.499 388.774 180.912 390.311 178.346C391.86 175.781 394.236 174.499 397.439 174.499C400.421 174.499 402.719 175.775 404.334 178.327C405.962 180.866 406.775 184.473 406.775 189.147C406.775 193.835 405.955 197.461 404.314 200.026C402.674 202.578 400.369 203.854 397.4 203.854C394.223 203.854 391.86 202.552 390.311 199.948C388.774 197.344 388.006 193.731 388.006 189.108V189.108ZM402.615 189.147C402.615 185.007 402.218 181.895 401.424 179.811C400.63 177.715 399.301 176.667 397.439 176.667C395.551 176.667 394.197 177.715 393.377 179.811C392.57 181.895 392.166 185.007 392.166 189.147C392.166 193.288 392.57 196.419 393.377 198.542C394.197 200.651 395.538 201.706 397.4 201.706C399.275 201.706 400.61 200.651 401.404 198.542C402.212 196.432 402.615 193.301 402.615 189.147Z" fill="black"/>
<path d="M435.332 188.904C435.332 193.73 434.012 197.37 431.372 199.824C428.759 202.25 425.105 203.464 420.412 203.464H412.452V174.904H421.252C424.132 174.904 426.625 175.437 428.732 176.504C430.839 177.57 432.465 179.144 433.612 181.224C434.759 183.277 435.332 185.837 435.332 188.904ZM431.532 189.024C431.532 185.21 430.585 182.424 428.692 180.664C426.825 178.877 424.172 177.984 420.732 177.984H416.052V200.384H419.932C427.665 200.384 431.532 196.597 431.532 189.024V189.024Z" fill="black"/>
<path d="M463.372 174.904V193.384C463.372 195.357 462.972 197.144 462.172 198.744C461.372 200.317 460.145 201.57 458.492 202.504C456.865 203.41 454.785 203.864 452.252 203.864C448.705 203.864 445.999 202.904 444.132 200.984C442.292 199.037 441.372 196.477 441.372 193.304V174.904H444.972V193.424C444.972 195.744 445.585 197.544 446.812 198.824C448.065 200.104 449.945 200.744 452.452 200.744C455.039 200.744 456.905 200.064 458.052 198.704C459.225 197.317 459.812 195.544 459.812 193.384V174.904H463.372Z" fill="black"/>
<path d="M483.132 177.664C480.065 177.664 477.652 178.69 475.892 180.744C474.132 182.797 473.252 185.61 473.252 189.184C473.252 192.73 474.065 195.544 475.692 197.624C477.345 199.677 479.812 200.704 483.092 200.704C484.345 200.704 485.532 200.597 486.652 200.384C487.772 200.17 488.865 199.904 489.932 199.584V202.704C488.865 203.104 487.759 203.397 486.612 203.584C485.492 203.77 484.145 203.864 482.572 203.864C479.665 203.864 477.239 203.264 475.292 202.064C473.345 200.864 471.879 199.157 470.892 196.944C469.932 194.73 469.452 192.13 469.452 189.144C469.452 186.264 469.972 183.73 471.012 181.544C472.079 179.33 473.639 177.61 475.692 176.384C477.745 175.13 480.239 174.504 483.172 174.504C486.185 174.504 488.812 175.064 491.052 176.184L489.612 179.224C488.732 178.824 487.745 178.464 486.652 178.144C485.585 177.824 484.412 177.664 483.132 177.664V177.664Z" fill="black"/>
<path d="M494.089 189.108C494.089 184.499 494.857 180.912 496.394 178.346C497.943 175.781 500.319 174.499 503.522 174.499C506.504 174.499 508.802 175.775 510.417 178.327C512.045 180.866 512.858 184.473 512.858 189.147C512.858 193.835 512.038 197.461 510.397 200.026C508.757 202.578 506.452 203.854 503.483 203.854C500.306 203.854 497.943 202.552 496.394 199.948C494.857 197.344 494.089 193.731 494.089 189.108V189.108ZM508.698 189.147C508.698 185.007 508.301 181.895 507.507 179.811C506.713 177.715 505.384 176.667 503.522 176.667C501.634 176.667 500.28 177.715 499.46 179.811C498.653 181.895 498.249 185.007 498.249 189.147C498.249 193.288 498.653 196.419 499.46 198.542C500.28 200.651 501.621 201.706 503.483 201.706C505.358 201.706 506.693 200.651 507.487 198.542C508.295 196.432 508.698 193.301 508.698 189.147Z" fill="black"/>
<path d="M591.915 203.464H588.795V181.45H581.064V178.712H599.611V181.45H591.915V203.464Z" fill="black"/>
<path d="M22.4401 0L22.3209 67.3203C22.1796 146.52 22.2781 211.883 22.5397 212.57C22.8013 213.258 24.1554 213.82 25.5495 213.82H28.0846L27.8307 68.5703L27.7116 0H22.4401ZM34.442 0L34.3229 68.6367L34.0709 213.953L36.8229 213.637L39.5768 213.32V68.3203V0H34.442ZM57.0768 0V68.8711V213.92L62.8268 213.621L68.5768 213.32L68.8307 68.5703L68.9518 0H57.0768ZM75.0768 0V68.8203V213.82H77.5768H80.0768V68.8203V0H75.0768ZM86.0768 0V48.416V172.82H92.0768H98.0768V48.4043C98.0768 30.0837 98.0543 14.3795 98.0202 0H86.0768ZM115.085 0C115.08 13.6009 115.082 28.9196 115.085 47.7539C115.097 115.823 115.4 171.81 115.758 172.168C116.117 172.526 117.461 172.82 118.745 172.82H121.077V48.4375C121.077 27.8151 121.061 14.3713 121.047 0H115.085ZM133.11 0C133.089 14.952 133.077 31.3442 133.077 48.5371V172.92L138.59 172.621L144.102 172.32L144.339 48.1484L144.43 0H133.11ZM156.133 0C156.1 14.3447 156.077 29.975 156.077 48.3203V172.82H159.081H162.085L161.831 48.0703C161.789 27.5937 161.748 14.3211 161.706 0H156.133ZM180.077 0V48.4219V172.82H185.577H191.077V48.4043C191.077 29.9298 191.055 14.3358 191.022 0H180.077ZM197.077 0V48.3203V172.82H200.077H203.077V48.3203V0H197.077ZM220.077 0V48.3203V172.82H226.077H232.077V48.3203V0H220.077ZM238.077 0V48.3203V172.82H241.077H244.077V48.3203V0H238.077ZM261.116 0C261.024 73.1575 261.148 172.559 261.491 172.904C261.719 173.133 264.419 173.167 267.491 172.978L273.077 172.635V48.3203V1e-06L261.116 0ZM279.077 0V48.3203V172.82H281.577H284.077V48.3203V0H279.077ZM290.077 0V68.1543C290.077 147.538 290.378 212.788 290.745 213.154C291.111 213.521 292.461 213.82 293.745 213.82H296.077V68.8203V0H290.077ZM302.442 0L302.323 68.6367L302.071 213.953L304.823 213.637L307.577 213.32V68.3203V0H302.442ZM314.077 0V48.3203V172.82H322.577H331.077V48.3203V0H314.077ZM343.077 0V48.3867V172.953L345.827 172.637L348.577 172.32L348.831 48.0703L348.928 0H343.077ZM354.077 0V48.3203V172.82H360.077H366.077V48.3203V0H354.077ZM378.11 0C378.089 14.9366 378.077 31.3138 378.077 48.4863V172.82H383.577H389.077V48.416V0H378.11ZM395.077 0V48.3203V172.82H401.077H407.077V48.3203V0H395.077ZM413.077 0V48.3203V172.82H418.577H424.077V48.3203V0H413.077ZM436.133 0C436.1 14.3565 436.077 29.9895 436.077 48.3789V172.82H439.077H442.077V48.3867C442.077 27.5142 442.064 14.4611 442.053 0H436.133ZM453.077 0V48.3203V172.82H462.077H471.077V48.3203V0H453.077ZM477.11 0C477.089 14.9366 477.077 31.3138 477.077 48.4863V172.82H482.577H488.077V48.416V0H477.11ZM500.135 0C500.101 14.3795 500.077 30.0837 500.077 48.4043V172.82H506.077H512.077V48.416V0H500.135ZM518.184 0C518.121 20.2873 518.077 42.7416 518.077 68.8789V213.82H520.577H523.077V68.9277C523.077 39.9245 523.064 18.6459 523.038 0H518.184ZM541.149 0C541.107 20.87 541.077 43.6289 541.077 69.0527V213.953L543.827 213.637L546.577 213.32L546.831 68.6875L546.952 0H541.149ZM558.077 0V68.1543C558.077 147.538 558.378 212.788 558.745 213.154C559.111 213.521 560.461 213.82 561.745 213.82H564.077V68.8203V0H558.077ZM570.077 0V68.8867V213.953L572.827 213.637L575.577 213.32L575.831 68.5703L575.952 0H570.077Z" fill="black"/>
</g>
<defs>
<clipPath id="clip0">
<rect width="599.611" height="213.953" fill="white"/>
</clipPath>
</defs>
</svg>
