<svg width="65" height="16" viewBox="0 0 65 16" fill="none" xmlns="http://www.w3.org/2000/svg">
<path d="M6.43338 15.8541C6.1027 15.7794 5.65207 15.6016 5.43196 15.4589C5.08179 15.232 4.90986 15.0117 4.28716 13.992C4.18087 13.818 4.15608 13.9613 4.15083 14.7798L4.1444 15.7804H2.0722H0V7.8902V0H2.2358H4.47159V3.04177V6.08354L5.07944 5.50107C5.83772 4.77445 6.56399 4.52027 7.64929 4.60169C9.35186 4.72941 10.4635 5.80962 11.0301 7.88689C11.3288 8.9821 11.3161 11.393 11.0055 12.5713C10.4837 14.5503 9.53064 15.5704 7.90992 15.8845C7.16331 16.0292 7.21302 16.0303 6.43334 15.8541L6.43338 15.8541ZM5.82334 12.3545C5.9804 12.2919 6.20043 12.0356 6.33565 11.7576C6.65556 11.1002 6.67105 9.1538 6.36166 8.48992C5.97393 7.65797 5.07944 7.59966 4.63095 8.3771C4.44863 8.69318 4.41722 8.95858 4.41795 10.1772C4.41878 11.397 4.44953 11.6544 4.62841 11.9324C4.93832 12.414 5.32839 12.5518 5.82335 12.3545H5.82334ZM16.7412 15.8788C13.7223 15.4778 12.0933 13.4088 12.1099 9.99633C12.1244 6.99644 13.586 5.1779 16.3684 4.69788C18.6504 4.30419 20.7515 4.92784 21.6279 6.25899C22.3444 7.34725 22.7881 9.0683 22.7923 10.7758L22.7944 11.546L19.6416 11.5763L16.4889 11.6066L16.6383 12.064C16.8178 12.6136 17.1019 12.8761 17.7001 13.0449C18.6338 13.3086 20.5802 13.1815 21.5129 12.796C21.8023 12.6764 22.0632 12.5786 22.0929 12.5786C22.1225 12.5786 22.1329 13.2057 22.1161 13.9723L22.0855 15.366L21.3447 15.5618C20.6102 15.756 18.4441 16.0225 17.8262 15.9946C17.6495 15.9867 17.1613 15.9345 16.7414 15.8788L16.7412 15.8788ZM18.8655 8.77642C18.8643 8.50913 18.7685 8.07179 18.6528 7.80456C18.3933 7.20524 18.0387 7.00995 17.4749 7.15598C17.1444 7.2416 17.0226 7.35661 16.823 7.7715C16.6823 8.06399 16.5776 8.49097 16.5776 8.77207V9.26241H17.7228H18.8679L18.8655 8.77642H18.8655ZM27.1914 15.8473C25.9516 15.5909 25.2177 14.8107 24.8554 13.3639C24.685 12.6835 24.6483 12.1301 24.6485 10.2421L24.6488 7.94738L23.8851 7.98535L23.1214 8.02332V6.41303V4.80274H23.8848H24.6483V3.55374V2.30475L25.0573 2.15919C25.2822 2.07912 25.5153 2.00171 25.5753 1.98715C25.6353 1.97259 26.4206 1.69535 27.3203 1.37105C28.2201 1.04675 28.9959 0.772833 29.0444 0.762347C29.0928 0.751862 29.1276 1.65666 29.1218 2.77301L29.111 4.80274H30.1516H31.1921V6.41296V8.02318L30.1832 7.98843L29.1744 7.95369L29.1436 9.30535C29.1039 11.0464 29.2397 11.8614 29.6294 12.2194C29.8919 12.4605 29.9902 12.4811 30.5575 12.4138L31.1921 12.3385V13.8729V15.4072L30.5649 15.5891C30.0039 15.7518 28.2646 16.0266 27.9776 15.9979C27.916 15.9917 27.5622 15.924 27.1913 15.8473H27.1914ZM34.464 15.8367C33.8341 15.7571 33.0611 15.6258 32.7462 15.545L32.1736 15.3981V13.7024C32.1736 12.727 32.217 12.0068 32.2756 12.0068C32.3317 12.0068 32.5143 12.0613 32.6813 12.1279C33.1787 12.3262 34.5863 12.5785 35.1948 12.5786C36.1043 12.5786 36.8321 12.3705 37.0805 12.0393C37.3769 11.6443 37.3738 10.8787 37.0743 10.4795C36.6576 9.92406 35.2055 9.69355 33.897 9.97515C33.7869 9.99884 33.7483 9.64215 33.7248 8.38358L33.6946 6.76148L34.7157 6.76731C36.3306 6.77652 36.8645 6.57841 37.0814 5.8895C37.3319 5.09344 36.7067 4.32325 35.6787 4.16161C35.0731 4.0664 33.1384 4.33866 32.7093 4.57947C32.3052 4.80619 32.2827 4.72522 32.2827 3.04439V1.4004L33.2571 1.1576C34.5932 0.824654 37.436 0.808318 38.5004 1.12747C40.0363 1.58799 41.1285 2.42101 41.553 3.45571C42.2732 5.21106 41.7029 7.113 40.2118 7.92808L39.5794 8.27376L40.1027 8.5357C40.9004 8.93496 41.4009 9.43069 41.7196 10.1371C41.9824 10.7195 42.0055 10.8798 41.9719 11.8889C41.937 12.9341 41.9114 13.0396 41.5385 13.6754C40.8565 14.8381 39.4951 15.6226 37.7042 15.8847C36.6691 16.0362 35.9585 16.0257 34.464 15.8367L34.464 15.8367ZM47.4917 15.842C47.0688 15.7615 46.4308 15.5475 46.0739 15.3665C45.1745 14.9106 43.8968 13.5553 43.4454 12.5786C42.7705 11.118 42.7027 10.7578 42.7025 8.63346C42.7024 6.83348 42.7243 6.6175 42.9985 5.71751C43.729 3.31991 45.0865 1.8532 47.226 1.15016C47.8283 0.952222 48.2165 0.918667 49.8419 0.924054C51.2602 0.928752 51.9326 0.979779 52.4594 1.12269L53.1683 1.31501L53.1985 3.00168C53.2151 3.92935 53.209 4.68835 53.1849 4.68835C53.1609 4.68835 52.9355 4.61228 52.6842 4.51929C52.4328 4.42631 52.1935 4.35885 52.1524 4.36938C52.1113 4.37991 51.7127 4.32107 51.2665 4.23862C50.4317 4.08433 49.5522 4.12281 48.8301 4.34524C48.0087 4.59822 47.3569 5.46072 47.1662 6.5471L47.0908 6.97645L47.7847 6.60932C48.455 6.25466 48.5248 6.24217 49.8419 6.24127C51.1287 6.24037 51.2418 6.25914 51.8595 6.57541C52.6653 6.98797 53.5289 7.87296 53.8678 8.63346C54.2125 9.40699 54.3568 10.6209 54.2238 11.6275C53.9337 13.8226 52.4121 15.3802 50.106 15.8428C49.1237 16.0399 48.5297 16.0397 47.4917 15.8419L47.4917 15.842ZM49.5451 12.4963C50.1375 11.9443 50.3287 10.7284 49.9577 9.87164C49.6765 9.22225 49.2964 8.98222 48.5667 8.99328C47.8564 9.00404 47.5363 9.26545 47.2844 10.0405C47.0609 10.7285 47.0743 11.2721 47.3295 11.8615C47.6233 12.5401 48.1085 12.838 48.7935 12.7604C49.0866 12.7272 49.4248 12.6083 49.5451 12.4963ZM57.3672 15.8418C56.8574 15.7656 56.1335 15.6331 55.7586 15.5474L55.0769 15.3916V13.6992C55.0769 12.7684 55.1137 12.0074 55.1587 12.008C55.2037 12.0087 55.4859 12.0888 55.7858 12.1861C56.1163 12.2932 56.8038 12.3699 57.5308 12.3807C58.9131 12.4013 59.4839 12.2034 59.7641 11.6066C60.0039 11.0958 59.9756 10.2578 59.7059 9.87896C59.2655 9.26044 58.7584 9.09042 57.3672 9.09489C56.4847 9.09774 55.9733 9.15389 55.6417 9.28444C55.2347 9.44465 55.1789 9.44672 55.2327 9.29965C55.267 9.20598 55.295 7.33252 55.295 5.13641V1.14348H59.7121H64.1292V2.79934V4.45519L61.757 4.48601L59.3849 4.51683L59.354 5.60457L59.3231 6.69232L60.4446 6.69685C61.3411 6.70048 61.6897 6.75259 62.182 6.95654C63.7428 7.60314 64.6667 9.16216 64.6667 11.1492C64.6667 13.845 63.1722 15.4582 60.2802 15.884C59.2563 16.0347 58.594 16.0251 57.3672 15.8418L57.3672 15.8418Z" fill="white"/>
</svg>
