<?xml version="1.0" encoding="UTF-8" standalone="no"?>
<!-- Created with Inkscape (http://www.inkscape.org/) -->

<svg
   xmlns:dc="http://purl.org/dc/elements/1.1/"
   xmlns:cc="http://creativecommons.org/ns#"
   xmlns:rdf="http://www.w3.org/1999/02/22-rdf-syntax-ns#"
   xmlns:svg="http://www.w3.org/2000/svg"
   xmlns="http://www.w3.org/2000/svg"
   xmlns:sodipodi="http://sodipodi.sourceforge.net/DTD/sodipodi-0.dtd"
   xmlns:inkscape="http://www.inkscape.org/namespaces/inkscape"
   width="210mm"
   height="297mm"
   viewBox="0 0 210 297"
   version="1.1"
   id="svg8"
   inkscape:version="0.92.4 (5da689c313, 2019-01-14)"
   sodipodi:docname="betfair.svg">
  <defs
     id="defs2" />
  <sodipodi:namedview
     id="base"
     pagecolor="#ffffff"
     bordercolor="#666666"
     borderopacity="1.0"
     inkscape:pageopacity="0.0"
     inkscape:pageshadow="2"
     inkscape:zoom="0.7"
     inkscape:cx="118.0908"
     inkscape:cy="591.66944"
     inkscape:document-units="mm"
     inkscape:current-layer="layer1"
     showgrid="false"
     inkscape:window-width="1304"
     inkscape:window-height="745"
     inkscape:window-x="-8"
     inkscape:window-y="-8"
     inkscape:window-maximized="1" />
  <metadata
     id="metadata5">
    <rdf:RDF>
      <cc:Work
         rdf:about="">
        <dc:format>image/svg+xml</dc:format>
        <dc:type
           rdf:resource="http://purl.org/dc/dcmitype/StillImage" />
        <dc:title></dc:title>
      </cc:Work>
    </rdf:RDF>
  </metadata>
  <g
     inkscape:label="Camada 1"
     inkscape:groupmode="layer"
     id="layer1">
    <path
       style="fill:#000000;stroke-width:0.26458332"
       d="m 55.546306,184.11373 c -0.663752,-0.1885 -1.586486,-0.61307 -2.050521,-0.94349 l -0.8437,-0.60077 v 0.67948 c 0,0.66917 -0.03007,0.67947 -1.984375,0.67947 H 48.683335 V 171.6137 159.29899 l 1.918229,0.0777 1.918229,0.0777 0.132292,4.20894 c 0.111455,3.54602 0.187589,4.14214 0.483383,3.78481 0.779417,-0.94155 2.807229,-1.31102 6.620759,-1.20629 3.326391,0.0914 3.738514,0.15933 5.148503,0.84917 2.768087,1.3543 3.483644,3.29832 3.313393,9.00177 -0.08834,2.95941 -0.194001,3.6559 -0.718143,4.7339 -0.697907,1.43537 -1.785599,2.36785 -3.488981,2.9911 -1.573784,0.57583 -6.831732,0.75961 -8.464693,0.29587 z m 7.199334,-3.70734 c 1.142196,-0.77008 1.334034,-1.6312 1.23838,-5.5588 -0.08147,-3.345 -0.128244,-3.62187 -0.717857,-4.24872 -0.871652,-0.9267 -3.004984,-1.33211 -5.926487,-1.12624 -4.117655,0.29017 -4.68784,0.99356 -4.687181,5.78219 7.94e-4,5.13215 0.75607,5.84058 6.085006,5.707 2.64037,-0.0662 3.448619,-0.1782 4.008139,-0.55543 z m 12.482388,3.79004 c -2.338496,-0.49451 -4.042262,-1.94203 -4.732774,-4.02097 -0.33923,-1.02133 -0.408612,-2.14497 -0.337667,-5.46865 0.08809,-4.12706 0.100061,-4.20062 0.891853,-5.48039 0.613822,-0.99212 1.169363,-1.48481 2.362271,-2.09499 1.50636,-0.77051 1.701911,-0.80099 5.717242,-0.89105 4.68292,-0.10502 6.45404,0.22412 7.94164,1.47585 1.38001,1.1612 1.88549,2.67125 2.03603,6.08234 l 0.13177,2.9861 h -7.57753 -7.577528 v 1.20802 c 0,2.51545 0.932076,3.02531 5.530528,3.02531 3.48796,0 4.37921,-0.21013 5.22042,-1.23082 l 0.56448,-0.68492 1.74582,0.58097 1.74583,0.58097 -0.39774,0.95192 c -0.55791,1.33526 -0.77809,1.54778 -2.45231,2.36689 -1.39922,0.68458 -1.71176,0.72849 -5.59504,0.78601 -2.262166,0.0335 -4.609949,-0.0442 -5.217295,-0.17259 z m 9.703225,-11.75575 c 0,-1.52511 -0.18251,-1.95006 -1.02425,-2.38485 -0.99703,-0.51501 -3.93944,-0.7724 -6.300463,-0.55115 -1.738924,0.16295 -2.137596,0.29742 -2.776821,0.93665 -0.601356,0.60136 -0.746384,0.98169 -0.746384,1.95736 v 1.21098 h 5.423958 5.42396 z m 10.670532,11.58823 c -0.60689,-0.21733 -1.42723,-0.7158 -1.82298,-1.10771 -1.38381,-1.37039 -1.54539,-2.13208 -1.65262,-7.79018 l -0.099,-5.22552 h -0.90212 -0.902112 v -1.71979 -1.71979 h 0.918362 0.91836 l 0.0738,-3.50573 0.0738,-3.50573 h 1.98438 1.98437 l 0.0738,3.50573 0.0738,3.50573 h 2.50586 2.505875 v 1.71979 1.71979 h -2.513555 -2.51354 v 4.98097 c 0,6.24805 -0.10875,6.07294 3.842545,6.18737 l 2.63975,0.0764 v 1.5875 1.5875 l -3.042705,0.0494 c -2.13869,0.0347 -3.37055,-0.068 -4.14614,-0.34576 z m 9.702385,-6.84737 v -7.27604 h -1.07095 -1.07096 l 0.0788,-1.65364 0.0788,-1.65365 0.95763,-0.0801 0.95763,-0.08 0.1315,-1.83789 c 0.16072,-2.2462 0.99152,-3.66649 2.64989,-4.5301 0.9506,-0.49503 1.66551,-0.6027 4.62991,-0.69733 l 3.50573,-0.1119 v 1.59335 1.59335 l -2.64035,0.0909 c -2.43885,0.084 -2.69345,0.14409 -3.33628,0.7874 -0.47824,0.47861 -0.73866,1.07552 -0.83252,1.90825 l -0.13658,1.21178 2.61297,0.0761 2.61297,0.0761 v 1.5875 1.5875 l -2.57969,0.0757 -2.57969,0.0757 v 7.26646 7.26647 h -1.98437 -1.98438 z m 12.60559,6.9944 c -2.5289,-0.62203 -3.62179,-2.10721 -3.81968,-5.1907 -0.31604,-4.92454 2.09838,-6.58244 9.30994,-6.3928 3.00626,0.079 3.59972,0.16922 4.45988,0.67758 l 0.99219,0.58639 v -1.45832 c 0,-2.03039 -0.63388,-2.64126 -3.0042,-2.8951 -3.16258,-0.33869 -6.29702,0.33896 -6.64543,1.43669 -0.21499,0.6774 -0.39096,0.67283 -2.38891,-0.062 -1.41738,-0.52132 -1.57747,-0.65407 -1.49391,-1.23875 0.15585,-1.09043 1.00764,-2.00942 2.47863,-2.67417 1.29577,-0.58558 1.72105,-0.63111 5.89445,-0.63111 4.13374,0 4.60475,0.0492 5.81753,0.60824 3.19788,1.47395 3.44288,2.24027 3.44288,10.76884 v 6.61458 l -2.05052,0.0773 c -2.04617,0.0771 -2.05052,0.0758 -2.05052,-0.60323 v -0.68051 l -0.81521,0.60323 c -0.75865,0.56138 -1.10281,0.60676 -4.96094,0.65406 -2.28015,0.028 -4.60493,-0.0621 -5.16618,-0.20018 z m 10.24047,-3.76807 c 0.65948,-0.43258 0.72096,-0.60549 0.64903,-1.8253 -0.0662,-1.12167 -0.20445,-1.4406 -0.8254,-1.9034 -0.65764,-0.49015 -1.17934,-0.56611 -4.40707,-0.64167 -2.98113,-0.0698 -3.81534,-0.006 -4.49138,0.34362 -0.81917,0.42361 -0.8292,0.4529 -0.7523,2.19564 0.10622,2.40721 0.26864,2.48097 5.24975,2.38393 3.18014,-0.0619 3.97545,-0.158 4.57737,-0.55282 z m 8.022,3.87333 c -0.097,-0.097 -0.17639,-4.20467 -0.17639,-9.12813 v -8.95173 h 2.11667 2.11666 v 9.12812 9.12813 h -1.94027 c -1.06716,0 -2.01966,-0.0794 -2.11667,-0.17639 z m 7.23195,-8.95174 v -9.12812 h 1.85208 1.85208 v 1.11023 1.11024 l 0.8599,-0.82943 c 0.47294,-0.45618 1.19506,-0.95579 1.60472,-1.11023 0.96676,-0.36449 3.73028,-0.35765 5.06359,0.0125 0.97264,0.27004 2.79657,1.74966 2.78579,2.2599 -0.003,0.12369 -0.56949,0.59394 -1.25972,1.045 l -1.25496,0.82011 -0.71816,-0.53619 c -1.01633,-0.75879 -3.68673,-0.77832 -4.96449,-0.0363 -1.71408,0.9954 -1.85121,1.61683 -1.85167,8.39113 l -4.1e-4,6.01927 h -1.98438 -1.98437 z m -124.618762,6.48229 v -2.38125 h -2.667881 c -1.560491,0 -2.631276,-0.10376 -2.579688,-0.24997 0.138359,-0.39217 10.055673,-11.92252 10.241243,-11.90698 0.223129,0.0187 9.891036,11.43504 10.0256,11.83873 0.07772,0.23315 -0.571791,0.31822 -2.429518,0.31822 h -2.535589 v 2.38125 2.38125 H 23.812501 18.785418 Z M 31.569926,170.5898 c -2.791177,-3.25847 -5.003755,-5.99561 -4.916839,-6.08252 0.08691,-0.0869 1.269275,-0.15803 2.627471,-0.15803 h 2.469443 v -2.38125 -2.38125 h 5.027084 5.027083 v 2.38125 2.38125 h 2.513542 c 1.549093,0 2.513541,0.10463 2.513541,0.27269 0,0.26217 -9.692449,11.69972 -10.024258,11.8291 -0.08921,0.0348 -2.44589,-2.60277 -5.237067,-5.86124 z m 104.536284,-7.39289 c -0.0757,-0.19723 -0.10171,-1.11997 -0.0578,-2.05053 l 0.0798,-1.69192 h 1.98438 1.98437 l 0.0773,2.05052 0.0773,2.05052 h -2.0038 c -1.44203,0 -2.04239,-0.10053 -2.14142,-0.35859 z"
       id="path3724"
       inkscape:connector-curvature="0" />
  </g>
</svg>
