<svg width="335" height="335" viewBox="0 0 335 335" fill="none" xmlns="http://www.w3.org/2000/svg">
<path fill-rule="evenodd" clip-rule="evenodd" d="M333 167.5C333 258.903 258.903 333 167.5 333C76.0969 333 2 258.903 2 167.5C2 76.0969 76.0969 2 167.5 2C258.903 2 333 76.0969 333 167.5ZM335 167.5C335 260.008 260.008 335 167.5 335C74.9923 335 0 260.008 0 167.5C0 74.9923 74.9923 0 167.5 0C260.008 0 335 74.9923 335 167.5ZM166.522 75.1603L200.326 146.962C199.61 146.666 198.892 146.373 198.171 146.083C178.573 138.206 158.961 133.512 140.633 131.805L166.522 75.1603ZM198.118 152.237C200.09 153.03 202.039 153.848 203.964 154.69L218.295 185.129C207.904 178.61 196.448 172.745 184.124 167.792C182.817 167.266 181.509 166.755 180.202 166.257L169.316 143.05C178.819 145.309 188.475 148.362 198.118 152.237ZM243.326 238.298L222.747 194.586C211.288 186.685 198.288 179.66 184.071 173.946L183.748 173.816L197.171 202.433C215.735 212.723 231.438 225.09 243.326 238.298ZM164.304 141.93L156.581 158.765C147.728 156.509 139.001 154.901 130.524 153.924L137.627 138.383C146.249 138.846 155.191 140.02 164.304 141.93ZM153.97 164.455C144.983 162.385 136.14 161.026 127.584 160.356L119.968 177.02C128.421 178.039 137.118 179.682 145.936 181.969L153.97 164.455ZM81.6026 260.962L117.043 183.419C125.575 184.136 134.385 185.536 143.334 187.64L109.696 260.962H81.6026ZM224.625 260.962L201.255 211.14C224.603 225.142 242.724 242.741 253.397 260.962H224.625Z" fill="#29B8CF"/>
</svg>
