<svg width="96" height="30" viewBox="0 0 96 30" fill="none" xmlns="http://www.w3.org/2000/svg">
<path d="M12.8134 29.9623C6.37251 29.1144 1.35945 24.2373 0.178907 17.6704C-0.0561126 16.3631 -0.0603411 13.6028 0.170703 12.3138C1.11489 7.04636 4.72057 2.62737 9.55303 0.815193C11.0337 0.259935 12.076 0.0701297 13.9389 0.0164743C15.2538 -0.0213953 15.8921 0.00329208 16.5938 0.11908C19.8249 0.65229 22.6077 2.17742 24.8754 4.65791C26.7448 6.7027 27.9727 9.15264 28.5776 12.0449C28.853 13.3619 28.8744 16.4315 28.6174 17.7638C27.4475 23.8282 23.0624 28.4558 17.2645 29.7447C16.4179 29.9329 13.6266 30.0694 12.8134 29.9623ZM16.6783 28.1314C19.2822 27.6589 21.7551 26.2685 23.6477 24.2126C25.3748 22.3365 26.4554 20.194 26.987 17.5918C27.254 16.2845 27.2751 13.9211 27.0311 12.636C25.8375 6.34895 20.9731 1.93256 14.944 1.66213C8.53149 1.3745 2.90293 6.07994 1.76348 12.681C1.54943 13.921 1.54978 16.119 1.76419 17.2829C2.85581 23.2079 7.28151 27.5538 12.9531 28.2702C13.9026 28.3901 15.601 28.3268 16.6783 28.1314H16.6783ZM5.03082 21.1626C4.86225 20.9873 4.80217 20.8202 4.80217 20.5268C4.80217 20.1362 4.80787 20.1293 5.10416 20.159C5.32059 20.1808 5.41518 20.2443 5.43806 20.3832C5.48582 20.6732 5.72481 20.8192 6.15208 20.8192C6.62253 20.8192 6.75841 20.6889 6.75841 20.2379C6.75841 19.7466 6.62777 19.6566 5.91499 19.6566C5.38615 19.6566 5.25895 19.6217 5.04866 19.419C4.82793 19.2062 4.80248 19.1126 4.80513 18.5228C4.80957 17.5336 5.03849 17.3314 6.15394 17.3314C6.81663 17.3314 6.88473 17.3509 7.13819 17.6145C7.33765 17.822 7.41048 17.9904 7.41048 18.2443C7.41048 18.5633 7.38869 18.5908 7.1361 18.5908C6.92865 18.5908 6.83178 18.5259 6.73894 18.3244C6.62523 18.0776 6.57499 18.058 6.0585 18.058H5.50082V18.494V18.9299L6.23108 18.9784C6.88732 19.0219 6.98411 19.0544 7.18591 19.2986C7.37689 19.5298 7.41048 19.6718 7.41048 20.2477C7.41048 20.8375 7.38098 20.9555 7.18183 21.1626C6.9726 21.3803 6.88125 21.4005 6.10632 21.4005C5.3314 21.4005 5.24005 21.3802 5.03082 21.1626ZM8.24887 19.3659V17.3314H9.28073C10.297 17.3314 10.3167 17.3356 10.5849 17.6145C10.8376 17.8773 10.8572 17.9502 10.8572 18.6264C10.8572 19.2562 10.8268 19.3918 10.6333 19.6258C10.4286 19.8733 10.3448 19.8995 9.65519 19.9321L8.90095 19.9677V20.6841V21.4005H8.57491H8.24887V19.3659ZM10.1087 19.0816C10.1617 18.9785 10.2051 18.7795 10.2051 18.6393C10.2051 18.1288 10.0634 18.0095 9.4566 18.0095H8.90095V18.6393V19.269H9.4566C9.91061 19.269 10.0299 19.2347 10.1087 19.0816ZM11.8311 21.1626C11.6074 20.93 11.6024 20.8911 11.6024 19.3789V17.833L11.889 17.5822C12.1451 17.3581 12.255 17.3314 12.9209 17.3314C13.6204 17.3314 13.6829 17.3487 13.9384 17.6145L14.2107 17.8977V19.3164C14.2107 21.2861 14.1425 21.3926 12.8791 21.3974C12.1313 21.4003 12.0397 21.3797 11.8311 21.1626ZM13.2585 20.7574C13.4677 20.6991 13.4703 20.6804 13.4448 19.3781L13.4189 18.058L12.9692 18.0281C12.2882 17.983 12.2545 18.0463 12.2545 19.3708C12.2545 20.2815 12.2843 20.5457 12.4009 20.6669C12.5523 20.8244 12.89 20.86 13.2585 20.7574L13.2585 20.7574ZM15.0491 19.3659V17.3314H16.0686C17.008 17.3314 17.1084 17.3495 17.3458 17.5619C17.5724 17.7645 17.6079 17.8742 17.6403 18.4693C17.675 19.1088 17.6617 19.1641 17.3994 19.4694L17.1217 19.7927L17.4361 20.5567C17.6091 20.9769 17.7506 21.3387 17.7506 21.3606C17.7506 21.3825 17.5905 21.4005 17.3949 21.4005H17.0393L16.7316 20.6254C16.4328 19.8726 16.4149 19.8503 16.1091 19.8503H15.7943V20.6254V21.4005H15.4217H15.0491V19.3659ZM16.8014 19.0886C16.8823 19.0353 16.9138 18.8475 16.8946 18.533L16.8656 18.058L16.33 18.0289L15.7943 17.9999V18.586V19.1721L16.2368 19.1707C16.4802 19.1699 16.7343 19.1329 16.8014 19.0886V19.0886ZM19.0547 19.705V18.0095H18.589H18.1232V17.6704V17.3314H19.4274H20.7315V17.6704V18.0095H20.2657H19.8V19.705V21.4005H19.4274H19.0547V19.705ZM21.6844 21.3356C21.5056 21.2608 21.2904 20.7696 21.2904 20.4364C21.2904 20.1722 21.3202 20.141 21.5722 20.141C21.7934 20.141 21.8748 20.1979 21.9506 20.4054C22.0766 20.7501 22.1888 20.8159 22.6531 20.8177C23.1344 20.8195 23.2662 20.6608 23.2291 20.1239L23.2001 19.705L22.4698 19.6566C21.8136 19.613 21.7168 19.5806 21.515 19.3363C21.3315 19.1141 21.2904 18.9578 21.2904 18.4811C21.2904 17.9655 21.3221 17.8648 21.5627 17.6145C21.8216 17.3453 21.8747 17.3314 22.6382 17.3314C23.3668 17.3314 23.4627 17.3534 23.6701 17.5692C23.8375 17.7433 23.8988 17.9119 23.8988 18.1989C23.8988 18.5669 23.8822 18.5908 23.6284 18.5908C23.4108 18.5908 23.3387 18.5332 23.259 18.2952C23.1622 18.0064 23.1476 18.0003 22.6211 18.0288L22.0822 18.058V18.4939V18.9299L22.5946 18.955C23.7263 19.0105 23.8988 19.1816 23.8988 20.2491C23.8988 20.9437 23.8807 21.0136 23.6533 21.1996C23.446 21.3692 23.2831 21.3993 22.6053 21.3928C22.1639 21.3886 21.7495 21.3628 21.6844 21.3356L21.6844 21.3356ZM24.1856 17.6624C24.19 17.5495 24.2121 17.5265 24.2418 17.6038C24.2687 17.6738 24.2654 17.7573 24.2345 17.7895C24.2035 17.8217 24.1815 17.7645 24.1856 17.6624H24.1856ZM24.4577 17.6602C24.4577 17.5924 24.5369 17.5432 24.6338 17.5508C24.7306 17.5584 24.7917 17.6138 24.7695 17.674C24.7141 17.8239 24.4577 17.8126 24.4577 17.6602V17.6602ZM4.89532 16.3231C4.89532 16.3005 5.39624 15.4609 6.00848 14.4572L7.12163 12.6324L6.32599 12.6042C5.39728 12.5714 5.41039 12.6502 6.13386 11.4505L6.61867 10.6466L10.1792 10.6464L13.7397 10.6462L13.1601 11.611L12.5805 12.5758L10.9844 12.5798L9.38835 12.5838L8.82212 13.5042L8.25588 14.4246L10.7908 14.4235L13.3258 14.4224L15.649 10.5955C16.9268 8.49076 18.0008 6.80178 18.0357 6.8423C18.0706 6.88282 19.3264 8.94326 20.8263 11.4211C22.3262 13.8988 23.6149 16.0242 23.6902 16.1441L23.827 16.3621H22.7093H21.5915L21.0253 15.4417L20.4591 14.5213H18.7943C17.8787 14.5213 17.1049 14.4957 17.0747 14.4642C17.0219 14.4094 17.8239 13.0057 18.1076 12.6563C18.2067 12.5342 18.3833 12.4868 18.7387 12.4868H19.2322L18.6186 11.4664C18.281 10.9052 17.9854 10.4663 17.9616 10.4911C17.9378 10.5159 17.1317 11.8361 16.1702 13.4249L14.4221 16.3137L9.65869 16.3387C7.03884 16.3526 4.89532 16.3454 4.89532 16.3228V16.3231ZM7.7831 8.76273C7.7831 8.73922 8.03948 8.30324 8.35284 7.79389L8.92259 6.86781H12.6952H16.4679L16.3326 7.08579C16.2583 7.20569 15.9914 7.64158 15.7397 8.05444L15.282 8.8051L11.5325 8.80528C9.47035 8.80539 7.7831 8.78624 7.7831 8.76273V8.76273ZM31.0716 22.6486C31.0716 22.5359 31.6375 19.1113 32.3292 15.0384C33.0209 10.9655 33.5868 7.59171 33.5868 7.54111C33.5868 7.48406 35.6946 7.44911 39.1351 7.44911H44.6835L44.6227 7.86086C44.5892 8.08733 44.4714 8.81758 44.3608 9.48366L44.1598 10.6947L40.6571 10.7201L37.1544 10.7455L36.9499 11.9796C36.8375 12.6583 36.7236 13.29 36.6969 13.3832C36.6514 13.5421 36.8253 13.5528 39.4492 13.5528H42.2501L42.2492 13.7708C42.2487 13.8906 42.1443 14.6209 42.0172 15.3935C41.8901 16.1662 41.7857 16.8311 41.7852 16.871C41.7847 16.911 40.5091 16.9437 38.9505 16.9437H36.1167L36.0632 17.2101C36.0338 17.3566 35.8215 18.5883 35.5914 19.9471C35.3613 21.3059 35.1507 22.5157 35.1234 22.6356C35.0737 22.8533 35.0709 22.8536 33.0726 22.8536C31.0974 22.8536 31.0716 22.851 31.0716 22.6486V22.6486ZM43.5919 22.5871C43.6207 22.4406 44.1907 19.0727 44.8584 15.1029C45.5262 11.1331 46.0961 7.76519 46.1249 7.61865L46.1774 7.35223H48.2194C49.3425 7.35223 50.2613 7.3742 50.2613 7.40107C50.2613 7.42795 49.6745 10.8969 48.9572 15.1098C48.2399 19.3227 47.653 22.7885 47.653 22.8116C47.653 22.8347 46.7275 22.8536 45.5962 22.8536H43.5395L43.5919 22.5871ZM49.1808 22.5871C49.2094 22.4406 49.7587 19.2035 50.4013 15.3935C51.044 11.5836 51.6137 8.2375 51.6674 7.95774L51.765 7.44911H57.3029H62.8407L62.7948 7.66709C62.7695 7.78699 62.6633 8.40825 62.5587 9.04768C62.4542 9.68711 62.345 10.3302 62.316 10.4767L62.2634 10.7431H58.7775C56.8603 10.7431 55.2912 10.7541 55.2906 10.7673C55.2898 10.7807 55.1857 11.3801 55.0588 12.0995C54.9319 12.8189 54.8276 13.4401 54.827 13.4801C54.8262 13.52 56.0835 13.5527 57.6205 13.5527C60.2218 13.5527 60.4148 13.5645 60.4104 13.7223C60.4079 13.8155 60.2903 14.5676 60.1495 15.3935L59.8935 16.8952L57.0623 16.9437L54.231 16.9921L53.8821 19.0266C53.6903 20.1456 53.464 21.4645 53.3792 21.9574L53.2251 22.8535H51.1769H49.1287L49.1808 22.5871ZM58.4744 22.7658C58.4915 22.7175 60.2234 19.2515 62.3231 15.0636L66.1408 7.4491H68.4946C69.7892 7.4491 70.8484 7.47104 70.8484 7.49784C70.8484 7.52464 71.3724 10.9713 72.0128 15.1571C72.6533 19.3429 73.1772 22.787 73.1772 22.8106C73.1772 22.8342 72.2779 22.8536 71.1787 22.8536H69.1801L69.1281 22.5387C69.0647 22.1548 68.799 20.2583 68.799 20.1899C68.799 20.1629 67.632 20.1408 66.2057 20.1408H63.6124L62.9965 21.4972L62.3805 22.8536H60.412C59.2751 22.8536 58.4565 22.8165 58.4744 22.7658V22.7658ZM68.3927 16.6772C68.3672 16.584 68.2108 15.3524 68.0452 13.9403C67.8795 12.5282 67.7187 11.3416 67.6877 11.3034C67.6456 11.2515 65.467 15.9832 65.1911 16.7257C65.1561 16.8198 65.5135 16.8468 66.7925 16.8468C68.3161 16.8468 68.4355 16.8342 68.3927 16.6772ZM75.9719 22.7129C75.9719 22.6347 76.0398 22.122 76.1228 21.5737L76.2738 20.5768L79.9343 16.736C81.9475 14.6235 83.7112 12.7122 83.8534 12.4886C84.1813 11.9734 84.2108 11.2677 83.9214 10.8639C83.3267 10.034 82.1326 10.0225 81.5461 10.841C81.4502 10.9747 81.2532 11.3889 81.1081 11.7614L80.8444 12.4386L79.0588 12.4649L77.2732 12.4912L77.3293 12.0774C77.514 10.7149 77.9894 9.72115 78.8696 8.85756C80.0643 7.6855 81.3868 7.21092 83.4242 7.22321C85.9767 7.23859 87.3732 8.02042 87.808 9.67744C88.0024 10.4187 87.9411 11.5851 87.6621 12.4505C87.1525 14.0314 86.8823 14.3725 83.8086 17.3149L81.6158 19.4142L84.1502 19.44L86.6846 19.4658L86.6801 19.6822C86.6776 19.8012 86.5601 20.5526 86.419 21.3519L86.1623 22.8051L81.0671 22.8302C76.6378 22.852 75.9719 22.8366 75.9719 22.7129V22.7129ZM89.7319 22.7809C89.7024 22.7242 91.3771 12.6546 91.65 11.2476L91.7119 10.9285L90.3947 10.9963L89.0775 11.0641L89.1298 10.7825C89.1586 10.6277 89.2545 10.0069 89.343 9.40305C89.4314 8.79922 89.5506 8.28762 89.6079 8.26617C89.6652 8.24471 90.6762 8.0522 91.8546 7.83834C93.4596 7.54706 94.2484 7.44946 94.9986 7.44931C95.8037 7.44914 96 7.47619 96 7.5873C96 7.80362 93.4777 22.6904 93.4264 22.7767C93.3683 22.8744 89.7826 22.8785 89.7319 22.7809V22.7809Z" fill="white"/>
</svg>
