<svg width="363" height="363" viewBox="0 0 363 363" fill="none" xmlns="http://www.w3.org/2000/svg">
<g filter="url(#filter0_d)">
<path fill-rule="evenodd" clip-rule="evenodd" d="M343 177.5C343 268.903 268.903 343 177.5 343C86.0969 343 12 268.903 12 177.5C12 86.0969 86.0969 12 177.5 12C268.903 12 343 86.0969 343 177.5ZM345 177.5C345 270.008 270.008 345 177.5 345C84.9923 345 10 270.008 10 177.5C10 84.9923 84.9923 10 177.5 10C270.008 10 345 84.9923 345 177.5ZM176.522 85.1603L210.326 156.962C209.61 156.666 208.892 156.373 208.171 156.083C188.573 148.206 168.961 143.512 150.633 141.805L176.522 85.1603ZM208.118 162.237C210.09 163.03 212.039 163.848 213.964 164.69L228.295 195.129C217.904 188.61 206.448 182.745 194.124 177.792C192.817 177.266 191.509 176.755 190.202 176.257L179.316 153.05C188.819 155.309 198.475 158.362 208.118 162.237ZM253.326 248.298L232.747 204.586C221.288 196.685 208.288 189.66 194.071 183.946L193.748 183.816L207.171 212.433C225.735 222.723 241.438 235.09 253.326 248.298ZM174.304 151.93L166.581 168.765C157.728 166.509 149.001 164.901 140.524 163.924L147.627 148.383C156.249 148.846 165.191 150.02 174.304 151.93ZM163.97 174.455C154.983 172.385 146.14 171.026 137.584 170.356L129.968 187.02C138.421 188.039 147.118 189.682 155.936 191.969L163.97 174.455ZM91.6026 270.962L127.043 193.419C135.575 194.136 144.385 195.536 153.334 197.64L119.696 270.962H91.6026ZM234.625 270.962L211.255 221.14C234.603 235.142 252.724 252.741 263.397 270.962H234.625Z" fill="white"/>
</g>
<defs>
<filter id="filter0_d" x="0" y="0" width="363" height="363" filterUnits="userSpaceOnUse" color-interpolation-filters="sRGB">
<feFlood flood-opacity="0" result="BackgroundImageFix"/>
<feColorMatrix in="SourceAlpha" type="matrix" values="0 0 0 0 0 0 0 0 0 0 0 0 0 0 0 0 0 0 127 0"/>
<feOffset dx="4" dy="4"/>
<feGaussianBlur stdDeviation="7"/>
<feColorMatrix type="matrix" values="0 0 0 0 0.227451 0 0 0 0 0.623529 0 0 0 0 0.992157 0 0 0 0.58 0"/>
<feBlend mode="normal" in2="BackgroundImageFix" result="effect1_dropShadow"/>
<feBlend mode="normal" in="SourceGraphic" in2="effect1_dropShadow" result="shape"/>
</filter>
</defs>
</svg>
