<svg width="173" height="243" viewBox="0 0 173 243" fill="none" xmlns="http://www.w3.org/2000/svg">
<g filter="url(#filter0_d)">
<path fill-rule="evenodd" clip-rule="evenodd" d="M147 89C147 123.242 119.242 151 85 151C50.7583 151 23 123.242 23 89C23 54.7583 50.7583 27 85 27C119.242 27 147 54.7583 147 89ZM149 89C149 124.346 120.346 153 85 153C49.6538 153 21 124.346 21 89C21 53.6538 49.6538 25 85 25C120.346 25 149 53.6538 149 89ZM84.6264 53.7179L97.5422 81.1523C97.269 81.0392 96.9946 80.9273 96.7191 80.8166C89.2308 77.8068 81.7373 76.0133 74.7345 75.361L84.6264 53.7179ZM96.6988 83.1682C97.4524 83.4711 98.1971 83.7836 98.9325 84.1053L104.408 95.7357C100.438 93.2449 96.0606 91.0038 91.3519 89.1113C90.8523 88.9104 90.3527 88.7151 89.8532 88.5251L85.6938 79.6579C89.3247 80.5207 93.0143 81.6873 96.6988 83.1682ZM113.972 116.051L106.109 99.349C101.731 96.3302 96.7636 93.6461 91.3316 91.4629L91.208 91.4133L96.3368 102.347C103.43 106.279 109.43 111.004 113.972 116.051ZM83.7788 79.2297L80.8278 85.6622C77.4454 84.8002 74.1108 84.1861 70.8718 83.8126L73.5858 77.8744C76.8801 78.0515 80.2969 78.5 83.7788 79.2297ZM79.8304 87.8364C76.3964 87.0453 73.0177 86.5263 69.7485 86.2702L66.8384 92.6374C70.0686 93.0267 73.3916 93.6546 76.7605 94.5281L79.8304 87.8364ZM52.1795 124.711L65.721 95.0824C68.9808 95.3565 72.3471 95.8911 75.7663 96.6952L62.9138 124.711H52.1795ZM106.827 124.711L97.8973 105.674C106.818 111.024 113.742 117.749 117.821 124.711H106.827Z" fill="white"/>
</g>
<defs>
<filter id="filter0_d" x="5" y="9" width="168" height="168" filterUnits="userSpaceOnUse" color-interpolation-filters="sRGB">
<feFlood flood-opacity="0" result="BackgroundImageFix"/>
<feColorMatrix in="SourceAlpha" type="matrix" values="0 0 0 0 0 0 0 0 0 0 0 0 0 0 0 0 0 0 127 0"/>
<feOffset dx="4" dy="4"/>
<feGaussianBlur stdDeviation="10"/>
<feColorMatrix type="matrix" values="0 0 0 0 0.227451 0 0 0 0 0.623529 0 0 0 0 0.992157 0 0 0 0.9 0"/>
<feBlend mode="normal" in2="BackgroundImageFix" result="effect1_dropShadow"/>
<feBlend mode="normal" in="SourceGraphic" in2="effect1_dropShadow" result="shape"/>
</filter>
</defs>
</svg>
