<svg width="2850" height="142" viewBox="0 0 2850 142" fill="none" xmlns="http://www.w3.org/2000/svg">
<path d="M95 0V75.8148H187.5H190V75.7876C189.169 75.8058 188.336 75.8148 187.5 75.8148C136.58 75.8148 95.2705 41.9093 95.0013 0H95Z" fill="#011627"/>
<path d="M95 0V75.8148H2.5H0V75.7875C0.830651 75.8057 1.66403 75.8148 2.5 75.8148C53.4195 75.8148 94.7295 41.9093 94.9987 0H95Z" fill="#011627"/>
<path d="M285 0V75.8148H377.5H380V75.7876C379.169 75.8058 378.336 75.8148 377.5 75.8148C326.58 75.8148 285.271 41.9093 285.001 0H285Z" fill="#011627"/>
<path d="M285 0V75.8148H192.5H190V75.7876C190.831 75.8057 191.664 75.8148 192.5 75.8148C243.42 75.8148 284.73 41.9093 284.999 0H285Z" fill="#011627"/>
<path d="M475 0V75.8148H567.5H570V75.7876C569.169 75.8058 568.336 75.8148 567.5 75.8148C516.58 75.8148 475.271 41.9093 475.001 0H475Z" fill="#011627"/>
<path d="M475 0V75.8148H382.5H380V75.7876C380.831 75.8057 381.664 75.8148 382.5 75.8148C433.42 75.8148 474.73 41.9093 474.999 0H475Z" fill="#011627"/>
<path d="M665 0V75.8148H757.5H760V75.7876C759.169 75.8058 758.336 75.8148 757.5 75.8148C706.58 75.8148 665.271 41.9093 665.001 0H665Z" fill="#011627"/>
<path d="M665 0V75.8148H572.5H570V75.7876C570.831 75.8057 571.664 75.8148 572.5 75.8148C623.42 75.8148 664.729 41.9093 664.999 0H665Z" fill="#011627"/>
<path d="M1235 0V75.8148H1327.5H1330V75.7876C1329.17 75.8058 1328.34 75.8148 1327.5 75.8148C1276.58 75.8148 1235.27 41.9093 1235 0H1235Z" fill="#011627"/>
<path d="M1235 0V75.8148H1142.5H1140V75.7875C1140.83 75.8057 1141.66 75.8148 1142.5 75.8148C1193.42 75.8148 1234.73 41.9093 1235 0H1235Z" fill="#011627"/>
<path d="M1425 0V75.8148H1517.5H1520V75.7876C1519.17 75.8058 1518.34 75.8148 1517.5 75.8148C1466.58 75.8148 1425.27 41.9093 1425 0H1425Z" fill="#011627"/>
<path d="M1425 0V75.8148H1332.5H1330V75.7876C1330.83 75.8057 1331.66 75.8148 1332.5 75.8148C1383.42 75.8148 1424.73 41.9093 1425 0H1425Z" fill="#011627"/>
<path d="M855 0V75.8148H947.5H950V75.7876C949.169 75.8058 948.336 75.8148 947.5 75.8148C896.58 75.8148 855.271 41.9093 855.001 0H855Z" fill="#011627"/>
<path d="M855 0V75.8148H762.5H760V75.7876C760.831 75.8057 761.664 75.8148 762.5 75.8148C813.42 75.8148 854.729 41.9093 854.999 0H855Z" fill="#011627"/>
<path d="M1045 0V75.8148H1137.5H1140V75.7875C1139.17 75.8057 1138.34 75.8148 1137.5 75.8148C1086.58 75.8148 1045.27 41.9093 1045 0H1045Z" fill="#011627"/>
<path d="M1045 0V75.8148H952.5H950V75.7876C950.831 75.8057 951.664 75.8148 952.5 75.8148C1003.42 75.8148 1044.73 41.9093 1045 0H1045Z" fill="#011627"/>
<path d="M1615 0V75.8148H1707.5H1710V75.7876C1709.17 75.8058 1708.34 75.8148 1707.5 75.8148C1656.58 75.8148 1615.27 41.9093 1615 0H1615Z" fill="#011627"/>
<path d="M1615 0V75.8148H1522.5H1520V75.7876C1520.83 75.8057 1521.66 75.8148 1522.5 75.8148C1573.42 75.8148 1614.73 41.9093 1615 0H1615Z" fill="#011627"/>
<path d="M1805 0V75.8148H1897.5H1900V75.7876C1899.17 75.8058 1898.34 75.8148 1897.5 75.8148C1846.58 75.8148 1805.27 41.9093 1805 0H1805Z" fill="#011627"/>
<path d="M1805 0V75.8148H1712.5H1710V75.7876C1710.83 75.8057 1711.66 75.8148 1712.5 75.8148C1763.42 75.8148 1804.73 41.9093 1805 0H1805Z" fill="#011627"/>
<path d="M2.5 142H1900V75.8148H0L2.5 142Z" fill="#011627"/>
<path d="M1045 0V75.8148H1137.5H1140V75.7875C1139.17 75.8057 1138.34 75.8148 1137.5 75.8148C1086.58 75.8148 1045.27 41.9093 1045 0H1045Z" fill="#011627"/>
<path d="M1045 0V75.8148H952.5H950V75.7876C950.831 75.8057 951.664 75.8148 952.5 75.8148C1003.42 75.8148 1044.73 41.9093 1045 0H1045Z" fill="#011627"/>
<path d="M1235 0V75.8148H1327.5H1330V75.7876C1329.17 75.8058 1328.34 75.8148 1327.5 75.8148C1276.58 75.8148 1235.27 41.9093 1235 0H1235Z" fill="#011627"/>
<path d="M1235 0V75.8148H1142.5H1140V75.7875C1140.83 75.8057 1141.66 75.8148 1142.5 75.8148C1193.42 75.8148 1234.73 41.9093 1235 0H1235Z" fill="#011627"/>
<path d="M1425 0V75.8148H1517.5H1520V75.7876C1519.17 75.8058 1518.34 75.8148 1517.5 75.8148C1466.58 75.8148 1425.27 41.9093 1425 0H1425Z" fill="#011627"/>
<path d="M1425 0V75.8148H1332.5H1330V75.7876C1330.83 75.8057 1331.66 75.8148 1332.5 75.8148C1383.42 75.8148 1424.73 41.9093 1425 0H1425Z" fill="#011627"/>
<path d="M1615 0V75.8148H1707.5H1710V75.7876C1709.17 75.8058 1708.34 75.8148 1707.5 75.8148C1656.58 75.8148 1615.27 41.9093 1615 0H1615Z" fill="#011627"/>
<path d="M1615 0V75.8148H1522.5H1520V75.7876C1520.83 75.8057 1521.66 75.8148 1522.5 75.8148C1573.42 75.8148 1614.73 41.9093 1615 0H1615Z" fill="#011627"/>
<path d="M2185 0V75.8148H2277.5H2280V75.7876C2279.17 75.8058 2278.34 75.8148 2277.5 75.8148C2226.58 75.8148 2185.27 41.9093 2185 0H2185Z" fill="#011627"/>
<path d="M2185 0V75.8148H2092.5H2090V75.7875C2090.83 75.8057 2091.66 75.8148 2092.5 75.8148C2143.42 75.8148 2184.73 41.9093 2185 0H2185Z" fill="#011627"/>
<path d="M2375 0V75.8148H2467.5H2470V75.7876C2469.17 75.8058 2468.34 75.8148 2467.5 75.8148C2416.58 75.8148 2375.27 41.9093 2375 0H2375Z" fill="#011627"/>
<path d="M2375 0V75.8148H2282.5H2280V75.7876C2280.83 75.8057 2281.66 75.8148 2282.5 75.8148C2333.42 75.8148 2374.73 41.9093 2375 0H2375Z" fill="#011627"/>
<path d="M1805 0V75.8148H1897.5H1900V75.7876C1899.17 75.8058 1898.34 75.8148 1897.5 75.8148C1846.58 75.8148 1805.27 41.9093 1805 0H1805Z" fill="#011627"/>
<path d="M1805 0V75.8148H1712.5H1710V75.7876C1710.83 75.8057 1711.66 75.8148 1712.5 75.8148C1763.42 75.8148 1804.73 41.9093 1805 0H1805Z" fill="#011627"/>
<path d="M1995 0V75.8148H2087.5H2090V75.7875C2089.17 75.8057 2088.34 75.8148 2087.5 75.8148C2036.58 75.8148 1995.27 41.9093 1995 0H1995Z" fill="#011627"/>
<path d="M1995 0V75.8148H1902.5H1900V75.7876C1900.83 75.8057 1901.66 75.8148 1902.5 75.8148C1953.42 75.8148 1994.73 41.9093 1995 0H1995Z" fill="#011627"/>
<path d="M2565 0V75.8148H2657.5H2660V75.7876C2659.17 75.8058 2658.34 75.8148 2657.5 75.8148C2606.58 75.8148 2565.27 41.9093 2565 0H2565Z" fill="#011627"/>
<path d="M2565 0V75.8148H2472.5H2470V75.7876C2470.83 75.8057 2471.66 75.8148 2472.5 75.8148C2523.42 75.8148 2564.73 41.9093 2565 0H2565Z" fill="#011627"/>
<path d="M2755 0V75.8148H2847.5H2850V75.7876C2849.17 75.8058 2848.34 75.8148 2847.5 75.8148C2796.58 75.8148 2755.27 41.9093 2755 0H2755Z" fill="#011627"/>
<path d="M2755 0V75.8148H2662.5H2660V75.7876C2660.83 75.8057 2661.66 75.8148 2662.5 75.8148C2713.42 75.8148 2754.73 41.9093 2755 0H2755Z" fill="#011627"/>
<path d="M952.5 142H2850V75.8148H950L952.5 142Z" fill="#011627"/>
</svg>
