<svg width="3814" height="442" viewBox="0 0 3814 442" fill="none" xmlns="http://www.w3.org/2000/svg">
<path fill-rule="evenodd" clip-rule="evenodd" d="M1808.98 80.0861C1808.1 80.0861 1807.22 80.0764 1806.34 80.0573C1805.46 80.0765 1804.58 80.0861 1803.7 80.0861C1749.91 80.0861 1706.27 44.2704 1705.99 0H1705.99H1705.98C1705.7 44.2704 1662.06 80.0861 1608.27 80.0861C1607.39 80.0861 1606.51 80.0764 1605.63 80.0573C1604.76 80.0765 1603.88 80.0861 1602.99 80.0861C1549.2 80.0861 1505.57 44.2704 1505.28 0H1505.28H1505.28C1505 44.2704 1461.36 80.0861 1407.57 80.0861C1406.69 80.0861 1405.81 80.0764 1404.93 80.0573C1404.05 80.0765 1403.17 80.0861 1402.29 80.0861C1348.5 80.0861 1304.86 44.2704 1304.58 0H1304.58H1304.58C1304.29 44.2704 1260.65 80.0861 1206.87 80.0861C1206.47 80.0861 1206.07 80.0841 1205.67 80.0802C1205.19 80.0754 1204.71 80.0677 1204.23 80.0573C1203.35 80.0764 1202.47 80.0861 1201.58 80.0861C1147.8 80.0861 1104.16 44.2704 1103.87 0H1103.87H1103.87C1103.59 44.2704 1059.95 80.0861 1006.16 80.0861C1005.28 80.0861 1004.4 80.0764 1003.52 80.0573C1002.64 80.0765 1001.76 80.0861 1000.88 80.0861C947.092 80.0861 903.455 44.2704 903.17 0H903.169H903.168C902.883 44.2704 859.246 80.0861 805.458 80.0861C804.575 80.0861 803.694 80.0764 802.817 80.0573C802.475 80.0648 802.133 80.0708 801.79 80.0753C801.253 80.0825 800.715 80.0861 800.176 80.0861C746.388 80.0861 702.751 44.2704 702.466 0H702.465H702.463C702.179 44.2704 658.542 80.0861 604.754 80.0861C603.87 80.0861 602.99 80.0764 602.113 80.0573C601.235 80.0765 600.355 80.0861 599.472 80.0861C545.684 80.0861 502.046 44.2704 501.762 0H501.761H501.759C501.475 44.2704 457.838 80.0861 404.049 80.0861C403.166 80.0861 402.286 80.0764 401.408 80.0573C400.531 80.0765 399.651 80.0861 398.768 80.0861C344.979 80.0861 301.342 44.2704 301.058 0H301.056H301.055C300.771 44.2704 257.133 80.0861 203.345 80.0861C202.462 80.0861 201.582 80.0764 200.704 80.0573C199.827 80.0765 198.946 80.0861 198.063 80.0861C144.275 80.0861 100.638 44.2704 100.354 0H100.352H100.351C100.066 44.2704 56.4291 80.0861 2.64084 80.0861C1.75778 80.0861 0.877441 80.0764 0 80.0573V80.0861V142V142.5V442H3813V155.499L3813.38 155.5V80.0861V80.0573C3812.5 80.0765 3811.62 80.0861 3810.74 80.0861C3756.95 80.0861 3713.31 44.2704 3713.03 0C3712.74 44.2704 3669.11 80.0861 3615.32 80.0861C3614.43 80.0861 3613.55 80.0764 3612.68 80.0573C3611.8 80.0765 3610.92 80.0861 3610.04 80.0861C3556.25 80.0861 3512.61 44.2704 3512.32 0C3512.04 44.2704 3468.4 80.0861 3414.61 80.0861C3413.73 80.0861 3412.85 80.0764 3411.97 80.0573C3411.09 80.0765 3410.21 80.0861 3409.33 80.0861C3355.54 80.0861 3311.91 44.2704 3311.62 0C3311.33 44.2704 3267.7 80.0861 3213.91 80.0861C3213.44 80.0861 3212.96 80.0833 3212.49 80.0778C3212.08 80.073 3211.68 80.0662 3211.27 80.0573C3210.85 80.0664 3210.43 80.0734 3210.02 80.0781C3209.55 80.0834 3209.09 80.0861 3208.63 80.0861C3154.84 80.0861 3111.2 44.2704 3110.92 0C3110.63 44.2704 3066.99 80.0861 3013.2 80.0861C3012.32 80.0861 3011.44 80.0764 3010.56 80.0573C3009.69 80.0764 3008.81 80.0861 3007.92 80.0861C2954.13 80.0861 2910.5 44.2704 2910.21 0C2909.93 44.2704 2866.29 80.0861 2812.5 80.0861C2811.62 80.0861 2810.74 80.0764 2809.86 80.0573C2808.98 80.0765 2808.1 80.0861 2807.22 80.0861C2753.43 80.0861 2709.79 44.2704 2709.51 0C2709.22 44.2704 2665.58 80.0861 2611.8 80.0861C2610.91 80.0861 2610.03 80.0764 2609.16 80.0573C2608.28 80.0765 2607.4 80.0861 2606.51 80.0861C2552.73 80.0861 2509.09 44.2704 2508.8 0C2508.52 44.2704 2464.88 80.0861 2411.09 80.0861C2410.21 80.0861 2409.33 80.0764 2408.45 80.0573C2407.57 80.0765 2406.69 80.0861 2405.81 80.0861C2352.02 80.0861 2308.38 44.2704 2308.1 0C2307.81 44.2704 2264.18 80.0861 2210.39 80.0861C2209.82 80.0861 2209.25 80.082 2208.68 80.0741C2208.37 80.0697 2208.06 80.0641 2207.75 80.0573C2206.87 80.0765 2205.99 80.0861 2205.11 80.0861C2151.32 80.0861 2107.68 44.2704 2107.39 0C2107.11 44.2704 2063.47 80.0861 2009.68 80.0861C2008.8 80.0861 2007.92 80.0764 2007.04 80.0573H2007.04C2006.16 80.0765 2005.28 80.0861 2004.4 80.0861C1950.61 80.0861 1906.98 44.2704 1906.69 0H1906.69H1906.69L1906.69 0.03125C1906.38 44.2872 1862.75 80.0861 1808.98 80.0861Z" fill="#011627"/>
</svg>
